<svg width="32" height="32" xmlns="http://www.w3.org/2000/svg">

 <title/>
 <g>
  <title>background</title>
  <rect fill="none" id="canvas_background" height="402" width="582" y="-1" x="-1"/>
 </g>
 <g>
  <title>Layer 1</title>
  <line stroke-width="2px" stroke-linejoin="round" stroke-linecap="round" stroke="#9faaaa" fill="none" id="svg_1" y2="16" y1="16" x2="16" x1="29" class="cls-1"/>
  <path fill="#9faaaa" id="svg_2" d="m24,25l0,3l-16,0l0,-24l16,0l0,3l2,0l0,-4a1,1 0 0 0 -1,-1l-18,0a1,1 0 0 0 -1,1l0,26a1,1 0 0 0 1,1l18,0a1,1 0 0 0 1,-1l0,-4l-2,0z"/>
  <line stroke-width="2px" stroke-linejoin="round" stroke-linecap="round" stroke="#9faaaa" fill="none" id="svg_3" y2="12" y1="16" x2="20" x1="16" class="cls-1"/>
  <line fill-opacity="0" stroke-width="2px" stroke-linejoin="round" stroke-linecap="round" stroke="#9faaaa" fill="none" id="svg_4" y2="20" y1="16" x2="20" x1="16" class="cls-1"/>
  <line stroke-width="2px" stroke-linejoin="round" stroke-linecap="round" fill="none" id="svg_5" y2="6" y1="8" x2="25" x1="25" class="cls-1"/>
  <line stroke-width="2px" stroke-linejoin="round" stroke-linecap="round" stroke="#9faaaa" fill="none" id="svg_6" y2="24" y1="26" x2="25" x1="25" class="cls-1"/>
 </g>
</svg>