<?xml version="1.0" encoding="UTF-8"?>
<svg xmlns="http://www.w3.org/2000/svg" xmlns:xlink="http://www.w3.org/1999/xlink" width="85px" height="85px" viewBox="0 0 85 85" version="1.1">
<g id="surface109764">
<path style=" stroke:none;fill-rule:nonzero;fill:rgb(100%,80%,50.196078%);fill-opacity:1;" d="M 58.4375 31.875 L 37.1875 31.875 L 37.1875 24.792969 C 37.1875 22.832031 35.246094 19.5 31.703125 19.5 C 28.160156 19.5 26.5625 23.019531 26.5625 24.792969 C 26.5625 26.5625 26.5625 37.1875 26.5625 37.1875 C 26.5625 37.1875 20.167969 41.261719 17.707031 44.269531 C 15.519531 46.734375 15.246094 49.832031 17.707031 53.125 L 22.476562 59.9375 C 27.671875 65.132812 32.914062 69.0625 40.296875 69.0625 L 52.480469 69.0625 C 61.511719 69.0625 69.0625 61.878906 69.0625 52.851562 C 69.0625 52.851562 69.0625 46.070312 69.0625 35.417969 Z M 58.4375 31.875 "/>
<path style=" stroke:none;fill-rule:nonzero;fill:rgb(100%,80%,50.196078%);fill-opacity:1;" d="M 37.1875 33.796875 C 37.1875 36.636719 39.578125 38.957031 42.5 38.957031 C 45.421875 38.957031 47.8125 36.636719 47.8125 33.796875 L 47.8125 21.09375 C 47.8125 18.257812 45.421875 15.9375 42.5 15.9375 C 39.578125 15.9375 37.1875 18.257812 37.1875 21.09375 Z M 47.8125 37.339844 C 47.8125 40.179688 50.203125 42.5 53.125 42.5 C 56.046875 42.5 58.4375 40.179688 58.4375 37.339844 L 58.4375 24.636719 C 58.4375 21.800781 56.046875 19.480469 53.125 19.480469 C 50.203125 19.480469 47.8125 21.800781 47.8125 24.636719 Z M 58.4375 42.652344 C 58.4375 45.492188 60.828125 47.8125 63.75 47.8125 C 66.671875 47.8125 69.0625 45.492188 69.0625 42.652344 L 69.0625 29.949219 C 69.0625 27.113281 66.671875 24.792969 63.75 24.792969 C 60.828125 24.792969 58.4375 27.113281 58.4375 29.949219 Z M 58.4375 42.652344 "/>
<path style=" stroke:none;fill-rule:nonzero;fill:rgb(94.901961%,63.529412%,35.294118%);fill-opacity:1;" d="M 26.5625 53.125 L 26.5625 37.1875 C 26.5625 37.1875 23.886719 38.894531 21.328125 40.914062 Z M 37.1875 21.25 L 37.1875 31.875 C 37.1875 32.851562 37.980469 33.644531 38.957031 33.644531 C 39.9375 33.644531 40.730469 32.851562 40.730469 31.875 Z M 47.8125 24.792969 L 47.8125 33.644531 C 47.8125 34.625 48.605469 35.417969 49.582031 35.417969 C 50.5625 35.417969 51.355469 34.625 51.355469 33.644531 Z M 58.4375 28.332031 L 58.4375 35.417969 C 58.4375 36.394531 59.230469 37.1875 60.207031 37.1875 C 61.1875 37.1875 61.980469 36.394531 61.980469 35.417969 Z M 58.4375 28.332031 "/>
</g>
</svg>
