<?xml version="1.0" encoding="UTF-8"?>
<svg xmlns="http://www.w3.org/2000/svg" xmlns:xlink="http://www.w3.org/1999/xlink" width="85px" height="85px" viewBox="0 0 85 85" version="1.1">
<g id="surface567976">
<path style=" stroke:none;fill-rule:nonzero;fill:rgb(100%,80%,50.196078%);fill-opacity:1;" d="M 37.035156 35.390625 C 34.195312 35.390625 31.875 37.78125 31.875 40.703125 C 31.875 43.625 34.195312 46.015625 37.035156 46.015625 L 72.761719 46.015625 C 75.601562 46.015625 77.917969 43.625 77.917969 40.703125 C 77.917969 37.78125 75.59375 35.390625 72.761719 35.390625 Z M 33.492188 56.636719 C 30.652344 56.636719 28.332031 59.03125 28.332031 61.949219 C 28.332031 64.871094 30.65625 67.261719 33.492188 67.261719 L 42.65625 67.261719 C 45.496094 67.261719 47.8125 64.871094 47.8125 61.949219 C 47.8125 59.03125 45.492188 56.636719 42.65625 56.636719 Z M 33.492188 56.636719 "/>
<path style=" stroke:none;fill-rule:nonzero;fill:rgb(100%,80%,50.196078%);fill-opacity:1;" d="M 33.492188 46.011719 C 30.652344 46.011719 28.332031 48.40625 28.332031 51.324219 C 28.332031 54.246094 30.65625 56.636719 33.492188 56.636719 L 44.425781 56.667969 C 47.261719 56.667969 49.582031 54.277344 49.582031 51.355469 C 49.582031 48.433594 47.261719 46.042969 44.425781 46.042969 Z M 33.492188 46.011719 "/>
<path style=" stroke:none;fill-rule:nonzero;fill:rgb(100%,80%,50.196078%);fill-opacity:1;" d="M 42.5 46.011719 L 44.269531 46.042969 L 44.269531 35.390625 L 66.519531 28.367188 C 69.398438 27.816406 71.304688 25.039062 70.738281 22.152344 C 70.1875 19.273438 67.40625 17.382812 64.523438 17.933594 L 39.179688 24.730469 L 32.75 18.300781 C 31.664062 16.671875 29.832031 15.855469 28.007812 15.96875 C 26.445312 15.863281 24.761719 16.378906 23.019531 17.683594 L 16.210938 22.449219 C 11.308594 27.347656 7.582031 30.753906 7.164062 37.3125 C 7.117188 37.695312 7.082031 38.089844 7.082031 38.5 L 7.082031 50.679688 C 7.082031 59.714844 14.265625 67.292969 23.292969 67.292969 C 23.292969 67.292969 31.847656 67.292969 42.5 67.292969 Z M 42.5 46.011719 "/>
<path style=" stroke:none;fill-rule:nonzero;fill:rgb(100%,92.156863%,93.333333%);fill-opacity:1;" d="M 33.824219 58.4375 C 31.746094 58.457031 30.082031 60.054688 30.105469 62.015625 C 30.128906 63.972656 31.832031 65.539062 33.898438 65.519531 C 35.972656 65.496094 35.898438 58.417969 33.824219 58.4375 M 33.824219 47.8125 C 31.746094 47.832031 30.082031 49.429688 30.105469 51.390625 C 30.128906 53.347656 31.832031 54.914062 33.898438 54.894531 C 35.972656 54.871094 35.898438 47.792969 33.824219 47.8125 "/>
<path style=" stroke:none;fill-rule:nonzero;fill:rgb(94.901961%,65.882353%,41.960784%);fill-opacity:1;" d="M 33.492188 67.261719 C 30.652344 67.261719 28.332031 64.871094 28.332031 61.949219 C 28.332031 59.03125 30.65625 56.636719 33.492188 56.636719 C 31.703125 56.636719 30.128906 55.691406 29.199219 54.257812 C 26.464844 55.761719 24.792969 58.625 24.792969 61.949219 C 24.792969 63.957031 25.476562 65.785156 26.582031 67.273438 C 30.027344 67.28125 33.492188 67.261719 33.492188 67.261719 Z M 33.492188 67.261719 "/>
<path style=" stroke:none;fill-rule:nonzero;fill:rgb(94.901961%,65.882353%,41.960784%);fill-opacity:1;" d="M 33.492188 56.636719 C 30.652344 56.636719 28.332031 54.246094 28.332031 51.324219 C 28.332031 48.40625 30.65625 46.011719 33.492188 46.011719 L 33.582031 43.921875 C 32.855469 43.65625 32.191406 43.242188 31.652344 42.707031 C 27.46875 43.5625 24.792969 47.089844 24.792969 51.324219 C 24.792969 53.332031 25.476562 55.160156 26.582031 56.648438 C 30.027344 56.65625 33.492188 56.636719 33.492188 56.636719 Z M 33.492188 56.636719 "/>
<path style=" stroke:none;fill-rule:nonzero;fill:rgb(94.901961%,65.882353%,41.960784%);fill-opacity:1;" d="M 39.410156 24.792969 L 39.183594 24.730469 L 39.835938 25.386719 C 40.417969 26.257812 40.730469 27.285156 40.730469 28.332031 L 40.730469 38.957031 C 40.730469 41.894531 38.351562 44.269531 35.417969 44.269531 C 32.480469 44.269531 30.105469 41.894531 30.105469 38.957031 L 30.105469 31.710938 L 26.5625 35.417969 L 26.5625 38.957031 C 26.5625 43.839844 30.535156 47.8125 35.417969 47.8125 C 40.300781 47.8125 42.5 43.839844 42.5 38.957031 C 42.5 38.957031 42.5 40.679688 42.5 35.390625 C 42.5 28.332031 40.261719 26.183594 39.410156 24.792969 Z M 39.410156 24.792969 "/>
<path style=" stroke:none;fill-rule:nonzero;fill:rgb(94.901961%,65.882353%,41.960784%);fill-opacity:1;" d="M 30.105469 35.125 L 30.105469 31.710938 L 29.019531 30.394531 C 29.019531 30.394531 21.269531 43.300781 8.855469 44.207031 L 7.082031 44.230469 L 7.082031 47.8125 C 19.746094 47.8125 27.101562 39.511719 30.105469 35.125 Z M 30.105469 35.125 "/>
</g>
</svg>
